<svg width="44" height="40" viewBox="0 0 44 40" fill="none" xmlns="http://www.w3.org/2000/svg">
<path d="M35.6305 15.7159C35.7187 15.0667 35.7619 14.4032 35.7567 13.7287C35.6988 6.19532 29.543 0.0480649 22.0096 0.000283377C14.3265 -0.048335 8.08285 6.16527 8.08285 13.8372C8.08285 14.4744 8.12603 15.1015 8.20946 15.7158C8.54778 18.2051 7.38211 20.6649 5.2629 22.0139C2.28296 23.9107 0.497803 26.3267 0.497803 28.9577C0.497803 35.056 10.0888 39.9996 21.92 39.9996C33.7512 39.9996 43.3422 35.056 43.3422 28.9577C43.3422 26.3267 41.557 23.9107 38.5769 22.0139C36.4577 20.6649 35.2921 18.2051 35.6305 15.7159Z" fill="url(#paint0_linear)"/>
<g opacity="0.1">
<path opacity="0.1" d="M16.8682 23.6433H8.87044C8.05623 23.6433 7.39624 24.3034 7.39624 25.1175V36.2181C7.39624 37.0323 8.05631 37.6923 8.87044 37.6923H16.8682C17.6824 37.6923 18.3424 37.0322 18.3424 36.2181V25.1175C18.3425 24.3034 17.6824 23.6433 16.8682 23.6433Z" fill="#0000CC"/>
<path opacity="0.1" d="M27.9527 4.56689C23.2737 4.56681 19.4844 8.33695 19.4618 13.0159C19.4496 15.5428 20.5413 17.8147 22.2826 19.3776C23.6855 20.6369 24.6315 22.3062 24.972 24.1277C24.5284 24.3913 24.2301 24.8739 24.2301 25.4274V28.6956C24.2301 29.3969 24.7082 29.985 25.3557 30.1561V32.3372C25.3557 32.8045 25.7346 33.1834 26.2019 33.1834C26.6692 33.1834 27.0481 32.8045 27.0481 32.3372V30.2079H28.857V32.3372C28.857 32.8045 29.2359 33.1834 29.7032 33.1834C30.1704 33.1834 30.5493 32.8045 30.5493 32.3372V30.1561C31.1969 29.985 31.6749 29.3969 31.6749 28.6956V25.4274C31.6749 24.874 31.3767 24.3913 30.933 24.1277C31.2734 22.3064 32.2191 20.6371 33.622 19.3781C35.3539 17.8238 36.4435 15.5681 36.4435 13.0578C36.4435 8.36841 32.6419 4.56698 27.9527 4.56689Z" fill="#0000CC"/>
</g>
<path d="M16.8682 35.4338H8.87044C8.05623 35.4338 7.39624 34.7738 7.39624 33.9596V22.8591C7.39624 22.0449 8.05631 21.3849 8.87044 21.3849H16.8682C17.6824 21.3849 18.3424 22.045 18.3424 22.8591V33.9596C18.3425 34.7738 17.6824 35.4338 16.8682 35.4338Z" fill="white"/>
<path d="M14.4419 21.3839V21.8235C14.4419 22.6919 13.7379 23.396 12.8694 23.396C12.001 23.396 11.2969 22.692 11.2969 21.8235V21.3839H14.4419Z" fill="#FF6C6C"/>
<path d="M10.8181 31.1522V27.0343C10.8181 25.9012 11.7361 24.9824 12.8691 24.9824C14.0022 24.9824 14.921 25.9012 14.921 27.0343V31.1522C14.921 32.2861 14.0022 33.204 12.8691 33.204C12.3026 33.204 11.7896 32.9747 11.4189 32.6032C11.0474 32.2317 10.8181 31.7195 10.8181 31.1522Z" fill="#6C6CFF"/>
<path d="M12.8693 33.2042C14.0024 33.2042 14.921 32.2856 14.921 31.1525C14.921 30.0194 14.0024 29.1008 12.8693 29.1008C11.7362 29.1008 10.8176 30.0194 10.8176 31.1525C10.8176 32.2856 11.7362 33.2042 12.8693 33.2042Z" fill="#FF6C6C"/>
<path d="M27.0481 26.8625V30.0778C27.0481 30.5452 26.6692 30.924 26.2019 30.924C25.7346 30.924 25.3557 30.5451 25.3557 30.0778V26.8625H27.0481Z" fill="#FFAB66"/>
<path d="M30.5495 26.8625V30.0778C30.5495 30.5452 30.1706 30.924 29.7034 30.924C29.236 30.924 28.8572 30.5451 28.8572 30.0778V26.8625H30.5495Z" fill="#FFAB66"/>
<path d="M25.3557 26.8625H27.0482V29.3861H25.7427C25.6093 29.3861 25.4796 29.3684 25.3557 29.336V26.8625Z" fill="#FF9D33"/>
<path d="M30.5494 26.8625V29.336C30.4255 29.3684 30.2958 29.3861 30.1623 29.3861H28.8569V26.8625H30.5494Z" fill="#FF9D33"/>
<path d="M22.2826 17.1182C23.9322 18.599 24.9506 20.6466 25.0951 22.842H30.81C30.9544 20.6468 31.9723 18.5992 33.622 17.1187C35.3539 15.5644 36.4435 13.3087 36.4435 10.7984C36.4435 6.10901 32.642 2.30758 27.9527 2.3075C23.2737 2.30741 19.4844 6.07755 19.4618 10.7565C19.4496 13.2834 20.5413 15.5553 22.2826 17.1182Z" fill="#2C27FF"/>
<path d="M29.5371 21.8746H26.3682L26.6518 20.473L27.2326 17.5994H28.6727L29.2535 20.473L29.5371 21.8746Z" fill="#6C6CFF"/>
<path d="M29.2535 20.473C28.8593 20.6972 28.4108 20.8169 27.9531 20.8169C27.4954 20.8169 27.046 20.6972 26.6519 20.473L27.2326 17.5994H28.6727L29.2535 20.473Z" fill="#4D4DFF"/>
<path d="M30.1628 27.9485H25.7426C24.9074 27.9485 24.2302 27.2714 24.2302 26.4361V23.168C24.2302 22.3328 24.9073 21.6556 25.7426 21.6556H30.1628C30.998 21.6556 31.6751 22.3327 31.6751 23.168V26.4361C31.675 27.2714 30.998 27.9485 30.1628 27.9485Z" fill="#6C6CFF"/>
<path d="M24.2302 23.6067H31.6751V24.8021H24.2302V23.6067Z" fill="#B3B3FF"/>
<path d="M16.8681 20.9655H8.87038C7.82681 20.9655 6.97778 21.8145 6.97778 22.8581V25.5228C6.97778 25.7538 7.16514 25.9412 7.39619 25.9412C7.62723 25.9412 7.81459 25.7538 7.81459 25.5228V22.8581C7.81459 22.2759 8.28822 21.8023 8.87038 21.8023H16.8681C17.4504 21.8023 17.924 22.2759 17.924 22.8581V33.9586C17.924 34.5408 17.4504 35.0144 16.8681 35.0144H8.87038C8.28822 35.0144 7.81459 34.5408 7.81459 33.9586V28.3679C7.81459 28.1369 7.62723 27.9495 7.39619 27.9495C7.16514 27.9495 6.97778 28.1369 6.97778 28.3679V33.9587C6.97778 35.0023 7.82681 35.8513 8.87038 35.8513H16.8681C17.9117 35.8513 18.7608 35.0023 18.7608 33.9587V22.8581C18.7608 21.8145 17.9118 20.9655 16.8681 20.9655Z" fill="#0000CC"/>
<path d="M14.6704 18.1799C14.8118 18.1799 14.9498 18.1082 15.0285 17.9784C15.1484 17.7809 15.0854 17.5236 14.8878 17.4037C14.2798 17.0349 13.5819 16.84 12.8695 16.84C12.1571 16.84 11.4592 17.0349 10.8511 17.4037C10.6536 17.5236 10.5905 17.7809 10.7104 17.9784C10.8302 18.1759 11.0875 18.2391 11.2851 18.1192C11.7623 17.8297 12.3102 17.6768 12.8695 17.6768C13.4288 17.6768 13.9766 17.8297 14.4538 18.1192C14.5216 18.1604 14.5964 18.1799 14.6704 18.1799Z" fill="#0000CC"/>
<path d="M12.8694 18.326C12.5223 18.326 12.1823 18.421 11.886 18.6008C11.6885 18.7206 11.6255 18.9779 11.7453 19.1755C11.8651 19.373 12.1225 19.4362 12.32 19.3162C12.6508 19.1157 13.0879 19.1156 13.4187 19.3162C13.4866 19.3574 13.5614 19.377 13.6353 19.377C13.7767 19.377 13.9147 19.3053 13.9935 19.1756C14.1133 18.978 14.0503 18.7207 13.8527 18.6009C13.5565 18.421 13.2164 18.326 12.8694 18.326Z" fill="#0000CC"/>
<path d="M10.3275 16.8601C11.093 16.3956 11.972 16.1502 12.8694 16.1502C13.7668 16.1502 14.6457 16.3956 15.4113 16.8601C15.4791 16.9012 15.5539 16.9208 15.6278 16.9208C15.7692 16.9208 15.9072 16.8491 15.986 16.7194C16.1058 16.5218 16.0428 16.2645 15.8452 16.1447C14.9488 15.6009 13.9198 15.3135 12.8693 15.3135C11.8188 15.3135 10.7898 15.6009 9.89337 16.1447C9.6958 16.2645 9.63278 16.5218 9.75262 16.7194C9.87261 16.917 10.1299 16.98 10.3275 16.8601Z" fill="#0000CC"/>
<path d="M35.4597 5.9988C35.3351 5.80424 35.0762 5.74742 34.8817 5.87219C34.6871 5.99679 34.6304 6.25561 34.7551 6.45017C35.5859 7.74705 36.025 9.25054 36.025 10.7983C36.025 13.0871 35.0473 15.2773 33.3425 16.8072C31.9844 18.026 31.0499 19.5828 30.628 21.2943C30.4789 21.2573 30.323 21.2373 30.1626 21.2373H25.7424C25.5804 21.2373 25.4229 21.2576 25.2723 21.2954C24.8509 19.5839 23.9201 18.0259 22.562 16.8068C20.8465 15.2669 19.869 13.0624 19.8801 10.7585C19.8905 8.60695 20.7343 6.58816 22.2561 5.07388C23.778 3.55968 25.8009 2.7258 27.9526 2.7258C29.7785 2.7258 31.501 3.32044 32.9337 4.44552C33.1154 4.5882 33.3785 4.55665 33.5212 4.37481C33.6639 4.19306 33.6323 3.93005 33.4505 3.78729C31.869 2.54539 29.9678 1.88892 27.9526 1.88892C27.9524 1.88892 27.9527 1.88892 27.9525 1.88892C25.5783 1.88892 23.3454 2.8094 21.6659 4.48058C19.9861 6.15202 19.0548 8.38001 19.0433 10.7544C19.0311 13.2971 20.1098 15.73 22.0031 17.4294C23.2848 18.5798 24.1495 20.061 24.5077 21.6849C24.0827 22.0393 23.8117 22.5725 23.8117 23.1679V26.436C23.8117 27.2132 24.2736 27.8842 24.937 28.19V30.0776C24.937 30.775 25.5044 31.3424 26.2018 31.3424C26.8993 31.3424 27.4667 30.775 27.4667 30.0776V28.3667H28.4382V30.0776C28.4382 30.775 29.0056 31.3424 29.7031 31.3424C30.4006 31.3424 30.9679 30.775 30.9679 30.0776V28.1899C31.6314 27.8841 32.0932 27.2131 32.0932 26.4359V23.168C32.0932 22.5726 31.8221 22.0393 31.3969 21.6848C31.755 20.061 32.6198 18.5801 33.9013 17.4301C35.7826 15.7416 36.8616 13.3244 36.8616 10.7984C36.8618 9.09029 36.377 7.43066 35.4597 5.9988ZM26.6299 30.0779C26.6299 30.3138 26.4378 30.5059 26.2018 30.5059C25.9659 30.5059 25.7738 30.3138 25.7738 30.0779V28.3669H26.6299V30.0779ZM29.7032 30.5059C29.4671 30.5059 29.2751 30.3138 29.2751 30.0779V28.3669H30.1312V30.0779C30.1312 30.3138 29.9392 30.5059 29.7032 30.5059ZM31.2565 26.4362C31.2565 27.0394 30.7658 27.5302 30.1626 27.5302H25.7424C25.1392 27.5302 24.6485 27.0395 24.6485 26.4362V23.168C24.6485 22.5649 25.1392 22.0741 25.7424 22.0741H30.1626C30.7658 22.0741 31.2565 22.5648 31.2565 23.168V26.4362Z" fill="#0000CC"/>
<path d="M30.0196 16.7114C30.0196 17.7271 29.5603 18.6356 28.8383 19.2404C28.3264 19.6691 27.5789 19.6691 27.0669 19.2405C26.3446 18.6357 25.8853 17.7272 25.8853 16.7114C25.8853 15.6957 26.3443 14.7877 27.0665 14.1831C27.5786 13.7542 28.3266 13.7543 28.8387 14.1831C29.5606 14.7878 30.0196 15.6958 30.0196 16.7114Z" fill="#D9D9FF"/>
<path d="M29.7215 16.5059C29.1318 16.5059 28.8097 16.2468 28.5747 16.0577C28.3705 15.8934 28.2472 15.7943 27.9523 15.7943C27.6575 15.7943 27.5343 15.8934 27.3301 16.0576C27.095 16.2468 26.773 16.5058 26.1833 16.5058C25.5936 16.5058 25.2716 16.2467 25.0366 16.0576C24.8324 15.8934 24.7091 15.7942 24.4143 15.7942C24.1831 15.7942 23.9958 15.6068 23.9958 15.3758C23.9958 15.1448 24.1831 14.9574 24.4143 14.9574C25.0039 14.9574 25.326 15.2165 25.561 15.4056C25.7652 15.5699 25.8885 15.669 26.1833 15.669C26.4781 15.669 26.6013 15.5699 26.8055 15.4057C27.0406 15.2165 27.3626 14.9575 27.9523 14.9575C28.542 14.9575 28.864 15.2166 29.0991 15.4057C29.3033 15.5699 29.4265 15.6691 29.7215 15.6691C30.0163 15.6691 30.1396 15.5699 30.3439 15.4058C30.579 15.2166 30.901 14.9576 31.4907 14.9576C31.7218 14.9576 31.9091 15.1449 31.9091 15.376C31.9091 15.607 31.7218 15.7944 31.4907 15.7944C31.1958 15.7944 31.0725 15.8935 30.8683 16.0578C30.6332 16.2468 30.3112 16.5059 29.7215 16.5059Z" fill="#9494FF"/>
<g opacity="0.1">
<g opacity="0.1">
<path opacity="0.1" d="M14.6704 20.4395C14.5965 20.4395 14.5216 20.4199 14.4538 20.3787C13.9767 20.0893 13.4288 19.9363 12.8695 19.9363C12.3101 19.9363 11.7622 20.0893 11.2851 20.3787C11.0875 20.4987 10.8302 20.4355 10.7104 20.238C10.5905 20.0404 10.6536 19.7831 10.8511 19.6632C11.4592 19.2944 12.157 19.0995 12.8695 19.0995C13.582 19.0995 14.2799 19.2945 14.8879 19.6632C15.0854 19.7831 15.1485 20.0404 15.0286 20.238C14.9498 20.3677 14.8118 20.4395 14.6704 20.4395Z" fill="#0000CC"/>
</g>
<g opacity="0.1">
<path opacity="0.1" d="M13.6353 21.6363C13.5613 21.6363 13.4865 21.6167 13.4187 21.5755C13.0881 21.3749 12.6507 21.3749 12.3201 21.5755C12.1225 21.6954 11.8652 21.6323 11.7453 21.4349C11.6255 21.2373 11.6884 20.98 11.886 20.86C12.1822 20.6804 12.5223 20.5853 12.8694 20.5853C13.2165 20.5853 13.5565 20.6803 13.8527 20.86C14.0503 20.98 14.1132 21.2373 13.9934 21.4349C13.9147 21.5646 13.7767 21.6363 13.6353 21.6363Z" fill="#0000CC"/>
</g>
<g opacity="0.1">
<path opacity="0.1" d="M15.6279 19.1801C15.554 19.1801 15.4791 19.1605 15.4113 19.1193C14.6458 18.655 13.7668 18.4094 12.8695 18.4094C11.9721 18.4094 11.0931 18.655 10.3276 19.1193C10.13 19.2392 9.87269 19.1761 9.75286 18.9785C9.63303 18.781 9.69604 18.5237 9.89361 18.4038C10.7901 17.86 11.8191 17.5726 12.8695 17.5726C13.92 17.5726 14.949 17.8601 15.8455 18.4038C16.043 18.5237 16.106 18.781 15.9862 18.9785C15.9073 19.1083 15.7693 19.1801 15.6279 19.1801Z" fill="#0000CC"/>
</g>
</g>
<path d="M13.6358 11.9956C13.5287 11.9956 13.4217 11.9547 13.3399 11.8731L12.4194 10.9526C12.256 10.7891 12.256 10.5242 12.4194 10.3609L13.3399 9.44038C13.5034 9.27704 13.7682 9.27704 13.9316 9.44038L14.8521 10.3609C15.0155 10.5243 15.0155 10.7892 14.8521 10.9526L13.9316 11.8731C13.85 11.9547 13.7429 11.9956 13.6358 11.9956ZM13.307 10.6567L13.6358 10.9855L13.9646 10.6567L13.6358 10.3279L13.307 10.6567Z" fill="#FF6C6C"/>
<path d="M36.4436 32.8425C36.3366 32.8425 36.2294 32.8016 36.1478 32.72L35.2273 31.7995C35.0639 31.6361 35.0639 31.3711 35.2273 31.2078L36.1478 30.2873C36.3111 30.124 36.5762 30.124 36.7394 30.2873L37.6599 31.2078C37.8233 31.3712 37.8233 31.6361 37.6599 31.7995L36.7394 32.72C36.6577 32.8016 36.5506 32.8425 36.4436 32.8425ZM36.1148 31.5036L36.4436 31.8324L36.7724 31.5036L36.4436 31.1748L36.1148 31.5036Z" fill="#FF6C6C"/>
<path d="M22.8406 36.3752C22.7335 36.3752 22.6264 36.3344 22.5448 36.2527L21.6243 35.3322C21.4609 35.1688 21.4609 34.9038 21.6243 34.7405L22.5448 33.82C22.708 33.6567 22.9731 33.6567 23.1364 33.82L24.0569 34.7405C24.2203 34.9039 24.2203 35.1689 24.0569 35.3322L23.1364 36.2527C23.0548 36.3344 22.9476 36.3752 22.8406 36.3752ZM22.5118 35.0363L22.8406 35.3651L23.1694 35.0363L22.8406 34.7075L22.5118 35.0363Z" fill="#FF9D33"/>
<path d="M5.97532 17.6786C5.37492 17.6786 4.88647 17.1901 4.88647 16.5897C4.88647 15.9893 5.37492 15.5009 5.97532 15.5009C6.57573 15.5009 7.06418 15.9893 7.06418 16.5897C7.06418 17.1901 6.57573 17.6786 5.97532 17.6786ZM5.97532 16.3377C5.83633 16.3377 5.72328 16.4507 5.72328 16.5897C5.72328 16.7287 5.83633 16.8418 5.97532 16.8418C6.11432 16.8418 6.22737 16.7287 6.22737 16.5897C6.22737 16.4507 6.11432 16.3377 5.97532 16.3377Z" fill="#6C6CFF"/>
<path d="M35.1404 23.3604C34.54 23.3604 34.0515 22.872 34.0515 22.2716C34.0515 21.6712 34.54 21.1827 35.1404 21.1827C35.7408 21.1827 36.2292 21.6712 36.2292 22.2716C36.2292 22.872 35.7408 23.3604 35.1404 23.3604ZM35.1404 22.0195C35.0014 22.0195 34.8883 22.1326 34.8883 22.2716C34.8883 22.4106 35.0014 22.5236 35.1404 22.5236C35.2794 22.5236 35.3924 22.4106 35.3924 22.2716C35.3924 22.1326 35.2794 22.0195 35.1404 22.0195Z" fill="#FF9D33"/>
<defs>
<linearGradient id="paint0_linear" x1="41.0456" y1="54.836" x2="-3.9745" y2="-13.1126" gradientUnits="userSpaceOnUse">
<stop offset="0.008" stop-color="#FFE8DC" stop-opacity="0"/>
<stop offset="0.9977" stop-color="#FF9494"/>
</linearGradient>
</defs>
</svg>
